<svg aria-hidden="true" style="position: absolute; width: 0; height: 0; overflow: hidden;" version="1.1" xmlns="http://www.w3.org/2000/svg" xmlns:xlink="http://www.w3.org/1999/xlink">
<defs>
<symbol id="icon-call-logo" viewBox="0 0 32 32">
<path d="M27.655 22.957l-0.173-0.216c-1.372-1.734-2.52-2.637-3.503-2.756-0.85-0.116-1.673 0.472-2.548 1.078l-0.935 0.584c-0.092 0.048-0.2 0.093-0.312 0.128l-0.014 0.004c-0.547 0.154-1.927 0.245-2.708-0.47-0.91-0.832-2.32-2.354-3.418-3.685-1.048-1.377-2.2-3.095-2.801-4.176-0.508-0.916-0.083-2.197 0.201-2.672 0.056-0.093 0.13-0.185 0.21-0.276l0.825-0.761c0.012-0.012 0.017-0.027 0.028-0.038 0.008-0.008 0.021-0.005 0.030-0.012 0.745-0.628 1.514-1.274 1.62-2.105 0.123-0.976-0.483-2.296-1.858-4.030l-0.168-0.215c-0.851-1.091-2.137-2.74-3.985-2.469-0.727 0.108-1.376 0.356-2.046 0.776-0.006 0.004-0.010 0.012-0.016 0.016-0.005 0.004-0.012 0.004-0.017 0.008l-0.932 0.69c-0.010 0.006-0.015 0.018-0.024 0.026-0.007 0.006-0.017 0.008-0.025 0.014-0.108 0.091-0.216 0.184-0.323 0.28-0.945 0.843-2.992 3.29-1.596 7.815 0.901 2.923 2.76 6.333 5.388 9.883l-0.025 0.021 1.449 1.805 0.012-0.009c2.85 3.37 5.75 5.976 8.407 7.553 1.773 1.054 3.322 1.402 4.597 1.402 1.677 0 2.879-0.603 3.481-0.995l0.379-0.253c0.043-0.030 0.073-0.071 0.104-0.108l0.825-0.622c0.010-0.008 0.015-0.018 0.024-0.026 0.004-0.004 0.010-0.003 0.016-0.007 0.587-0.536 0.994-1.097 1.276-1.763 0.732-1.705-0.578-3.338-1.445-4.42zM28.12 26.959c-0.22 0.517-0.541 0.957-1.005 1.384l-1.228 0.924c-1.112 0.722-3.49 1.616-6.943-0.435-2.657-1.577-5.582-4.244-8.461-7.712l-0.779-0.984c-2.71-3.595-4.617-7.037-5.517-9.955-1.17-3.793 0.304-5.828 1.29-6.706 0.1-0.091 0.2-0.175 0.3-0.259l0.003-0.004 0.895-0.663c0.463-0.309 1.013-0.529 1.605-0.621l0.023-0.003c1.239-0.186 2.247 1.12 2.987 2.070l0.173 0.22c1.536 1.937 1.684 2.858 1.636 3.234-0.053 0.418-0.688 0.952-1.248 1.423l-0.079 0.067-0.006 0.009-0.012 0.007-0.852 0.788c-0.006 0.005-0.008 0.012-0.014 0.018s-0.016 0.010-0.021 0.016c-0.121 0.133-0.232 0.28-0.33 0.437l-0.007 0.013c-0.48 0.801-0.931 2.457-0.218 3.738 0.623 1.12 1.808 2.89 2.898 4.319 1.138 1.381 2.59 2.95 3.532 3.81 0.705 0.643 1.686 0.86 2.536 0.86 0.454 0 0.872-0.063 1.188-0.153 0.166-0.048 0.338-0.117 0.516-0.204 0.010-0.005 0.016-0.014 0.026-0.021 0.006-0.003 0.014-0.001 0.019-0.005l0.99-0.619c0.031-0.021 0.053-0.050 0.080-0.076l0.011 0.013c0.61-0.422 1.304-0.918 1.739-0.846 0.385 0.046 1.26 0.417 2.799 2.36l0.177 0.222c0.75 0.935 1.776 2.215 1.297 3.334z"></path>
</symbol>
<symbol id="icon-cosmetics" viewBox="0 0 32 32">
<path d="M8.733 12.047h-8.86c-0.273 0-0.493 0.207-0.493 0.473v2.833c0 0.26 0.22 0.473 0.493 0.473h0.493v10.86c0 0.26 0.22 0.473 0.493 0.473h6.893c0.267 0 0.487-0.213 0.487-0.473v-10.86h0.493c0.273 0 0.493-0.213 0.493-0.473v-2.833c0-0.267-0.22-0.473-0.493-0.473zM3.32 21.020v-0.947h2.953v-0.94h-2.953v-0.947h3.94v6.14h-3.94v-2.36h0.987v-0.947h-0.987zM7.26 17.24h-4.433c-0.273 0-0.493 0.213-0.493 0.473v7.087c0 0.26 0.22 0.473 0.493 0.473h4.433v0.94h-5.907v-10.387h5.907v1.413zM8.24 14.88h-7.873v-1.893h7.873v1.893zM15.26 12.133v-3.453c0-0.267-0.22-0.487-0.493-0.487h-0.493v-2.433h0.987v-0.967h-5.42v0.967h3.447v2.433h-0.493c-0.267 0-0.487 0.22-0.487 0.487v3.453c-1.127 0.227-1.973 1.207-1.973 2.38v12.16c0 0.267 0.22 0.487 0.493 0.487h5.907c0.273 0 0.493-0.22 0.493-0.487v-12.16c0-1.173-0.847-2.153-1.967-2.38zM13.287 9.167h0.987v2.92h-0.987v-2.92zM12.793 13.060h1.973c0.813 0 1.473 0.653 1.473 1.453v0.487h-4.92v-0.487c0-0.8 0.66-1.453 1.473-1.453zM16.24 24.24h-4.92v-0.973h1.967v-0.967h-1.967v-6.327h4.92v8.267zM11.32 26.187v-0.973h4.92v0.973h-4.92zM27.84 11.44h-8.307c-0.253 0-0.46 0.213-0.46 0.48v14.767c0 0.26 0.207 0.473 0.46 0.473h8.307c0.26 0 0.467-0.213 0.467-0.473v-14.767c0-0.267-0.207-0.48-0.467-0.48zM27.38 26.207h-7.38v-13.813h7.38v13.813z"></path>
<path d="M5.533 21.113h1.233v0.607h-1.233v-0.607zM14.153 22.32h1.227v1.213h-1.227v-1.213z"></path>
<path d="M13.84 21.113c1.193 0 2.16-0.947 2.16-2.113s-0.967-2.12-2.16-2.12c-1.187 0-2.153 0.953-2.153 2.12s0.967 2.113 2.153 2.113zM13.84 17.94c0.6 0 1.080 0.473 1.080 1.060 0 0.58-0.48 1.053-1.080 1.053-0.593 0-1.073-0.473-1.073-1.053 0-0.587 0.48-1.060 1.073-1.060zM22.533 16.28h2.307c0.893 0 1.62-0.68 1.62-1.513s-0.727-1.513-1.62-1.513h-2.307c-0.887 0-1.613 0.68-1.613 1.513s0.727 1.513 1.613 1.513zM25.533 14.767c0 0.353-0.307 0.647-0.693 0.647h-0.687v-1.293h0.687c0.387 0 0.693 0.287 0.693 0.647zM22.533 14.12h0.693v1.293h-0.693c-0.38 0-0.693-0.293-0.693-0.647 0-0.36 0.313-0.647 0.693-0.647zM22.533 21.113h2.307c0.893 0 1.62-0.813 1.62-1.813s-0.727-1.813-1.62-1.813h-2.307c-0.887 0-1.613 0.813-1.613 1.813s0.727 1.813 1.613 1.813zM25.533 19.3c0 0.427-0.307 0.78-0.693 0.78h-0.687v-1.56h0.687c0.387 0 0.693 0.353 0.693 0.78zM22.533 18.52h0.693v1.56h-0.693c-0.38 0-0.693-0.353-0.693-0.78s0.313-0.78 0.693-0.78zM22.533 25.347h2.307c0.893 0 1.62-0.813 1.62-1.813s-0.727-1.813-1.62-1.813h-2.307c-0.887 0-1.613 0.813-1.613 1.813s0.727 1.813 1.613 1.813zM25.533 23.533c0 0.427-0.307 0.773-0.693 0.773h-0.687v-1.553h0.687c0.387 0 0.693 0.353 0.693 0.78zM22.533 22.753h0.693v1.553h-0.693c-0.38 0-0.693-0.347-0.693-0.773s0.313-0.78 0.693-0.78z"></path>
</symbol>
<symbol id="icon-crown" viewBox="0 0 32 32">
<path d="M29.687 10.32c-0.253-0.227-0.56-0.373-0.887-0.42-0.327-0.053-0.653 0-0.953 0.147l-6.313 3.080c-0.027 0.020-0.060 0.027-0.087 0.033-0.033 0-0.067 0-0.093-0.013-0.033-0.007-0.060-0.027-0.087-0.047l-0.060-0.080-3.687-7.287c-0.146-0.303-0.364-0.551-0.633-0.729l-0.007-0.004c-0.267-0.173-0.573-0.267-0.88-0.267-0.313 0-0.62 0.093-0.893 0.267-0.267 0.18-0.487 0.427-0.633 0.733l-3.687 7.287-0.060 0.080c-0.027 0.020-0.053 0.040-0.087 0.047-0.027 0.013-0.060 0.013-0.093 0.013-0.027-0.007-0.060-0.013-0.087-0.033l-6.313-3.080c-0.211-0.107-0.46-0.17-0.724-0.17-0.429 0-0.82 0.166-1.111 0.437l0.001-0.001c-0.253 0.233-0.447 0.533-0.547 0.873-0.059 0.186-0.093 0.399-0.093 0.62 0 0.156 0.017 0.308 0.049 0.454l-0.003-0.014 3.187 14.893c0.053 0.253 0.153 0.487 0.293 0.693 0.14 0.213 0.32 0.387 0.52 0.513 0.267 0.18 0.573 0.28 0.887 0.28 0.16-0.007 0.32-0.027 0.48-0.073 2.67-0.845 5.741-1.332 8.925-1.332 3.168 0 6.224 0.482 9.098 1.376l-0.217-0.058c0.233 0.073 0.467 0.093 0.707 0.060 0.233-0.027 0.46-0.113 0.66-0.247 0.207-0.127 0.387-0.307 0.527-0.513s0.24-0.447 0.3-0.7l3.173-14.893c0.080-0.347 0.067-0.713-0.033-1.053-0.107-0.34-0.293-0.64-0.54-0.873zM28.807 11.86l-3.187 14.893c-0.013 0.073-0.053 0.133-0.113 0.18-0.060 0.033-0.133 0.040-0.2 0.027-2.785-0.882-5.988-1.39-9.31-1.39s-6.525 0.508-9.536 1.451l0.226-0.061c-0.033 0.013-0.067 0.013-0.107 0.007-0.033 0-0.067-0.013-0.093-0.033-0.029-0.022-0.054-0.048-0.073-0.079l-0.001-0.001c-0.020-0.028-0.035-0.062-0.040-0.099l-0-0.001-3.187-14.893c-0.003-0.018-0.005-0.039-0.005-0.060s0.002-0.042 0.005-0.062l-0 0.002c0.009-0.044 0.027-0.082 0.054-0.114l-0 0c0.020-0.033 0.053-0.060 0.087-0.080 0.033-0.013 0.067-0.027 0.107-0.027l0.1 0.027 6.327 3.093c0.4 0.2 0.847 0.22 1.267 0.067 0.413-0.147 0.76-0.467 0.967-0.893l3.693-7.287c0.020-0.040 0.047-0.080 0.087-0.107 0.033-0.020 0.080-0.033 0.127-0.033 0.040 0 0.087 0.013 0.12 0.033 0.040 0.027 0.067 0.067 0.087 0.107l3.687 7.287c0.213 0.427 0.56 0.747 0.973 0.893 0.413 0.153 0.867 0.133 1.267-0.067l6.327-3.093c0.040-0.020 0.087-0.027 0.133-0.020s0.093 0.027 0.127 0.060c0.040 0.033 0.067 0.073 0.080 0.127 0.020 0.047 0.020 0.1 0.007 0.147zM20.747 22.313c-0.020 0.2-0.107 0.393-0.247 0.527-0.14 0.14-0.32 0.213-0.5 0.213h-0.080c-2.607-0.287-5.24-0.287-7.847 0-0.2 0.027-0.393-0.040-0.553-0.173-0.153-0.14-0.253-0.333-0.273-0.553s0.040-0.433 0.167-0.607c0.127-0.167 0.313-0.273 0.507-0.3 2.713-0.32 5.44-0.32 8.153 0 0.193 0.027 0.373 0.133 0.5 0.3 0.127 0.16 0.187 0.38 0.173 0.593z"></path>
</symbol>
<symbol id="icon-facebook" viewBox="0 0 32 32">
<path d="M23.987 2.128c-1.181-0.133-2.549-0.208-3.936-0.208-0.040 0-0.080 0-0.12 0h0.006c-4.484 0-7.27 2.856-7.27 7.453v3.122h-3.767c0 0 0 0 0 0-0.368 0-0.666 0.298-0.667 0.666v5.134c0.001 0.368 0.299 0.666 0.667 0.666 0 0 0 0 0 0h3.767v10.294c0.001 0.368 0.298 0.665 0.666 0.666h5.304c0 0 0 0 0 0 0.368 0 0.666-0.298 0.667-0.666v-10.295h3.755c0.338-0 0.616-0.251 0.661-0.577l0-0.003 0.663-5.133c0.004-0.026 0.006-0.057 0.006-0.088 0-0.367-0.298-0.665-0.665-0.665-0.001 0-0.002 0-0.003 0h-4.417v-2.611c0-1.294 0.26-1.834 1.877-1.834h2.72c0.368-0.001 0.665-0.298 0.666-0.666v-4.594c-0.001-0.337-0.251-0.616-0.577-0.66l-0.003-0zM23.233 6.715l-2.053 0.001c-2.876 0-3.21 1.808-3.21 3.167v3.28c0.001 0.368 0.298 0.665 0.666 0.666h4.328l-0.492 3.8h-3.835c-0.368 0.001-0.666 0.299-0.666 0.667 0 0 0 0 0 0v0 10.29h-3.971v-10.29c0 0 0 0 0 0 0-0.368-0.299-0.667-0.667-0.667-0 0-0.001 0-0.001 0h-3.764v-3.8h3.765c0 0 0 0 0 0 0.368 0 0.666-0.298 0.667-0.666v-3.79c0-3.832 2.22-6.12 5.937-6.12 1.346 0 2.56 0.074 3.296 0.138v3.324z"></path>
</symbol>
<symbol id="icon-instagram" viewBox="0 0 32 32">
<path d="M16 10.25c-3.176 0-5.75 2.574-5.75 5.75s2.574 5.75 5.75 5.75v0c3.176 0 5.75-2.574 5.75-5.75s-2.574-5.75-5.75-5.75v0zM16 20.25c-2.347 0-4.25-1.903-4.25-4.25s1.903-4.25 4.25-4.25c2.347 0 4.25 1.903 4.25 4.25v0c-0.007 2.344-1.906 4.243-4.249 4.25h-0.001zM21.5 3.75h-11c-3.728 0-6.75 3.022-6.75 6.75v0 11c0 3.728 3.022 6.75 6.75 6.75v0h11c3.728 0 6.75-3.022 6.75-6.75v0-11c0-3.728-3.022-6.75-6.75-6.75v0zM26.75 21.5c0 2.899-2.351 5.25-5.25 5.25v0h-11c-2.899 0-5.25-2.351-5.25-5.25v0-11c0-2.899 2.351-5.25 5.25-5.25v0h11c2.899 0 5.25 2.351 5.25 5.25v0 11zM23.75 9.5c0 0.69-0.56 1.25-1.25 1.25s-1.25-0.56-1.25-1.25v0c0-0.69 0.56-1.25 1.25-1.25s1.25 0.56 1.25 1.25v0z"></path>
</symbol>
<symbol id="icon-studies" viewBox="0 0 32 32">
<path d="M16.060 1.393c-1.053 0-2.033 0.48-2.867 1.267-0.84 0.78-1.553 1.873-2.147 3.193-0.127 0.273-0.247 0.567-0.36 0.86-0.307-0.047-0.62-0.087-0.927-0.12-0.36-0.033-0.713-0.060-1.053-0.067-1.027-0.027-1.967 0.080-2.787 0.327-1.1 0.333-2 0.947-2.527 1.853-0.527 0.913-0.6 2-0.34 3.113s0.847 2.28 1.693 3.46c0.173 0.247 0.367 0.493 0.567 0.74-0.2 0.24-0.387 0.487-0.567 0.74-0.847 1.18-1.433 2.34-1.693 3.46-0.26 1.113-0.187 2.2 0.34 3.113 0.527 0.907 1.427 1.52 2.527 1.853 1.093 0.327 2.4 0.407 3.84 0.26 0.3-0.033 0.613-0.073 0.927-0.12 0.107 0.293 0.227 0.58 0.36 0.86 0.593 1.32 1.307 2.413 2.147 3.2 0.833 0.78 1.813 1.26 2.867 1.26 1.047 0 2.027-0.48 2.867-1.26 0.833-0.787 1.547-1.88 2.147-3.2 0.127-0.28 0.247-0.567 0.36-0.86 0.313 0.047 0.62 0.087 0.92 0.12 1.447 0.147 2.747 0.067 3.84-0.26 1.1-0.333 2.007-0.947 2.527-1.853 0.527-0.913 0.6-2 0.34-3.113s-0.847-2.28-1.687-3.46c-0.187-0.253-0.373-0.5-0.567-0.74 0.193-0.24 0.38-0.487 0.567-0.74 0.84-1.18 1.433-2.347 1.693-3.46s0.18-2.2-0.347-3.113c-0.52-0.907-1.427-1.52-2.52-1.853-0.827-0.247-1.76-0.353-2.787-0.327-0.347 0.007-0.693 0.033-1.060 0.067-0.3 0.027-0.607 0.073-0.92 0.12-0.113-0.293-0.233-0.58-0.36-0.86-0.6-1.32-1.313-2.413-2.147-3.193-0.84-0.787-1.82-1.267-2.867-1.267zM16.060 2.567c0.7 0 1.387 0.307 2.067 0.947 0.68 0.633 1.327 1.6 1.88 2.82 0.093 0.2 0.173 0.4 0.253 0.6-1.333 0.3-2.753 0.753-4.2 1.367-1.453-0.607-2.867-1.067-4.207-1.367 0.080-0.207 0.167-0.407 0.253-0.6 0.553-1.22 1.2-2.187 1.88-2.827 0.687-0.633 1.373-0.94 2.073-0.94zM8.333 7.693h0.347c0.307 0.007 0.627 0.027 0.96 0.060 0.213 0.020 0.433 0.053 0.653 0.080-0.413 1.313-0.727 2.767-0.92 4.327-1.253 0.947-2.36 1.947-3.287 2.96-0.133-0.173-0.267-0.347-0.393-0.527-0.78-1.087-1.293-2.127-1.507-3.040-0.213-0.907-0.133-1.653 0.22-2.26 0.347-0.607 0.96-1.047 1.847-1.32 0.587-0.18 1.293-0.273 2.080-0.28zM23.78 7.693c0.793 0.007 1.493 0.1 2.080 0.28 0.893 0.273 1.5 0.713 1.853 1.32 0.347 0.607 0.427 1.353 0.213 2.26-0.213 0.913-0.727 1.953-1.507 3.040-0.127 0.18-0.26 0.353-0.393 0.527-0.927-1.013-2.033-2.007-3.28-2.96-0.2-1.56-0.513-3.013-0.927-4.327 0.22-0.027 0.44-0.060 0.653-0.080 0.32-0.033 0.64-0.053 0.967-0.060h0.34zM20.66 8.047c0.313 0.967 0.567 2.027 0.76 3.167-0.62-0.42-1.253-0.813-1.9-1.187s-1.313-0.727-1.98-1.053c1.080-0.407 2.133-0.713 3.12-0.927zM11.453 8.047c0.993 0.213 2.040 0.52 3.127 0.927-0.673 0.327-1.333 0.68-1.987 1.053-0.647 0.373-1.28 0.767-1.9 1.187 0.193-1.14 0.453-2.2 0.76-3.167zM16.060 9.573c0.947 0.42 1.913 0.907 2.873 1.46 0.96 0.56 1.867 1.153 2.707 1.767 0.113 1.033 0.173 2.107 0.173 3.22s-0.060 2.187-0.173 3.22c-0.84 0.613-1.74 1.207-2.707 1.76-0.96 0.56-1.927 1.047-2.873 1.467-0.953-0.42-1.92-0.907-2.88-1.467-1.057-0.611-1.94-1.193-2.79-1.818l0.083 0.058c-0.106-0.966-0.166-2.086-0.166-3.22s0.060-2.254 0.178-3.357l-0.012 0.137c0.84-0.613 1.747-1.207 2.707-1.767 0.96-0.553 1.927-1.040 2.88-1.46zM16.133 11.333l-3.34 2.060 3.34 2.067 3.347-2.067-3.347-2.060zM9.213 13.78c-0.051 0.67-0.080 1.452-0.080 2.24s0.029 1.57 0.086 2.343l-0.006-0.103c-0.887-0.733-1.687-1.487-2.367-2.24 0.68-0.753 1.473-1.507 2.367-2.24zM22.9 13.78c0.893 0.733 1.687 1.487 2.367 2.24-0.732 0.802-1.505 1.535-2.328 2.209l-0.039 0.031c0.051-0.67 0.080-1.452 0.080-2.24s-0.029-1.57-0.086-2.343l0.006 0.103zM12.040 14.3v4.080l3.513 2.167v-4.073l-3.513-2.173zM20.233 14.307l-3.513 2.167v4.073l3.513-2.167v-4.073zM6.087 16.92c0.927 1.013 2.033 2.007 3.287 2.96 0.193 1.56 0.507 3.013 0.92 4.327l-0.653 0.080c-1.327 0.133-2.487 0.047-3.38-0.22-0.893-0.273-1.507-0.713-1.853-1.32-0.353-0.607-0.427-1.353-0.22-2.26 0.213-0.913 0.727-1.96 1.507-3.047 0.127-0.173 0.26-0.347 0.393-0.52zM26.027 16.92c0.14 0.173 0.273 0.347 0.393 0.52 0.78 1.087 1.293 2.133 1.507 3.047 0.213 0.907 0.133 1.653-0.213 2.26-0.353 0.607-0.96 1.047-1.853 1.32-0.893 0.267-2.053 0.347-3.387 0.22l-0.653-0.080c0.413-1.313 0.727-2.767 0.927-4.327 1.247-0.953 2.353-1.947 3.28-2.96zM21.42 20.827c-0.193 1.14-0.447 2.2-0.76 3.167-1.221-0.269-2.264-0.588-3.272-0.978l0.152 0.052c0.673-0.327 1.333-0.68 1.98-1.053s1.28-0.767 1.9-1.187zM10.693 20.827c0.62 0.42 1.253 0.813 1.9 1.187 0.653 0.373 1.313 0.727 1.987 1.053-1.087 0.407-2.133 0.713-3.127 0.927-0.313-0.967-0.567-2.027-0.76-3.167zM16.093 20.88l0.040 0.027 0.047-0.027h-0.087zM16.060 23.74c1.447 0.607 2.867 1.067 4.2 1.367-0.080 0.2-0.16 0.4-0.253 0.6-0.553 1.22-1.2 2.187-1.88 2.827-0.68 0.633-1.367 0.94-2.067 0.94s-1.387-0.307-2.073-0.94c-0.68-0.64-1.327-1.607-1.88-2.827-0.087-0.2-0.173-0.4-0.253-0.6 1.34-0.3 2.753-0.76 4.207-1.367z"></path>
</symbol>
<symbol id="icon-Arrow" viewBox="0 0 36 32">
<path d="M1.062 17.414c-0.781-0.781-0.781-2.047 0-2.828l12.728-12.728c0.781-0.781 2.047-0.781 2.828 0s0.781 2.047 0 2.828l-11.314 11.314 11.314 11.314c0.781 0.781 0.781 2.047 0 2.828s-2.047 0.781-2.828 0l-12.728-12.728zM36 18h-33.524v-4h33.524v4z"></path>
</symbol>
<symbol id="icon-Menu" viewBox="0 0 32 32">
<path d="M29.333 24.007c0 0.733-0.595 1.327-1.327 1.327h-10.68c-0.352 0-0.689-0.14-0.938-0.389s-0.389-0.586-0.389-0.938c0-0.352 0.14-0.689 0.389-0.938s0.586-0.389 0.938-0.389h10.68c0.733 0 1.327 0.593 1.327 1.327zM29.333 16c0 0.733-0.595 1.327-1.327 1.327h-24.013c-0.352 0-0.689-0.14-0.938-0.389s-0.389-0.586-0.389-0.938c0-0.352 0.14-0.689 0.389-0.938s0.586-0.389 0.938-0.389h24.013c0.733 0 1.327 0.595 1.327 1.327zM28.007 9.32c0.352 0 0.689-0.14 0.938-0.389s0.389-0.586 0.389-0.938c0-0.352-0.14-0.689-0.389-0.938s-0.586-0.389-0.938-0.389h-16.013c-0.174 0-0.347 0.034-0.508 0.101s-0.307 0.164-0.43 0.288c-0.123 0.123-0.221 0.269-0.288 0.43s-0.101 0.333-0.101 0.508c0 0.174 0.034 0.347 0.101 0.508s0.164 0.307 0.288 0.43c0.123 0.123 0.269 0.221 0.43 0.288s0.333 0.101 0.508 0.101h16.013z"></path>
</symbol>
<symbol id="icon-Star" viewBox="0 0 32 32">
<path d="M24.978 0l-3.491 14.321 10.184 10.657-14.321-3.491-10.658 10.184 3.491-14.321-10.183-10.658 14.321 3.491 10.657-10.183z"></path>
</symbol>
<symbol id="icon-Close" viewBox="0 0 32 32">
  <path 
    d="M8 8l8 8 8-8M8 24l8-8 8 8"
    fill="none"
    stroke-width="2"
    stroke-linecap="round"
    stroke-linejoin="miter"
    stroke-miterlimit="4"
  />
</symbol>
<symbol id="icon-burger" viewBox="0 0 32 32">
<path d="M29.333 24.007c0 0.733-0.595 1.327-1.327 1.327h-10.68c-0.733 0-1.327-0.594-1.327-1.327s0.594-1.327 1.327-1.327h10.68c0.733 0 1.327 0.593 1.327 1.327zM29.333 16c0 0.733-0.595 1.327-1.327 1.327h-24.013c-0.733 0-1.327-0.594-1.327-1.327s0.594-1.327 1.327-1.327h24.013c0.733 0 1.327 0.595 1.327 1.327zM28.007 9.32c0.733 0 1.327-0.594 1.327-1.327s-0.594-1.327-1.327-1.327h-16.013c-0.733 0-1.327 0.594-1.327 1.327s0.594 1.327 1.327 1.327h16.013z"></path>
</symbol>
</defs>
</svg>
